# Blender v2.79 (sub 7) OBJ File: ''
# www.blender.org
mtllib scene.mtl
o Cube_Cube.000
v -2.437896 -2.080524 -6.074908
v -2.437896 -2.080524 6.164812
v -2.437896 2.905369 6.164812
v -2.437896 2.905369 -6.074908
v 2.547997 -2.080524 6.164812
v 2.547997 2.905369 6.164812
v 2.547997 -2.080524 -6.074908
v 2.547997 2.905369 -6.074908
vn 1.0000 0.0000 0.0000
vn 0.0000 0.0000 -1.0000
vn -1.0000 0.0000 0.0000
vn 0.0000 0.0000 1.0000
vn 0.0000 1.0000 0.0000
vn 0.0000 -1.0000 -0.0000
usemtl None.001
s 1
f 2//1 1//1 4//1
f 5//2 2//2 3//2
f 7//3 5//3 6//3
f 1//4 7//4 8//4
f 1//5 2//5 5//5
f 8//6 6//6 3//6
f 2//1 4//1 3//1
f 5//2 3//2 6//2
f 7//3 6//3 8//3
f 1//4 8//4 4//4
f 1//5 5//5 7//5
f 8//6 3//6 4//6
